<?xml version="1.0" encoding="UTF-8"?>
<svg width="23px" height="23px" viewBox="0 0 23 23" version="1.1" xmlns="http://www.w3.org/2000/svg" xmlns:xlink="http://www.w3.org/1999/xlink">
    <!-- Generator: Sketch 63.1 (92452) - https://sketch.com -->
    <title>Bike</title>
    <desc>Created with Sketch.</desc>
    <g id="Bike" stroke="none" stroke-width="1" fill="none" fill-rule="evenodd">
        <path d="M18.5110977,9.72626172 C17.9433945,9.72626172 17.4001406,9.8324375 16.8997266,10.025582 C16.5076797,9.15434766 16.168957,8.23296875 15.9997891,7.37578516 C15.7280977,5.99915234 14.5116094,5 13.1072188,5 C12.7512656,5 12.4626875,5.28857813 12.4626875,5.64453125 C12.4626875,6.00048438 12.7512656,6.2890625 13.1072188,6.2890625 C13.2605742,6.2890625 13.4098906,6.31046094 13.5521602,6.35020703 C13.9845547,6.47103516 14.3514648,6.76348047 14.5654492,7.15621484 C14.5481328,7.17821484 14.5316328,7.20103125 14.5169805,7.22573828 L14.3167461,7.56282813 L13.3037148,9.26825781 L7.89119922,9.26825781 L7.58354297,8.49391797 L7.71124609,8.49391797 C8.06719922,8.49391797 8.35577734,8.20533984 8.35577734,7.84938672 C8.35577734,7.49343359 8.06719922,7.20485547 7.71124609,7.20485547 L5.48894531,7.20485547 C5.13299219,7.20485547 4.84441406,7.49343359 4.84441406,7.84938672 C4.84441406,8.20533984 5.13299219,8.49391797 5.48894531,8.49391797 L6.19646875,8.49391797 L6.75892969,9.90948047 C6.35605469,9.79045703 5.92989063,9.72621875 5.48894531,9.72621875 C3.01373047,9.72626172 1,11.7399922 1,14.2151641 C1,16.6903359 3.01373047,18.7041094 5.48890234,18.7041094 C7.74523437,18.7041094 9.6178125,17.0306055 9.93135547,14.8596953 L11.1150156,14.8596953 C11.3424062,14.8596953 11.5529961,14.7398555 11.6691406,14.5443477 L15.0562383,8.84213672 C15.2549258,9.45701953 15.5036289,10.0731055 15.7717109,10.6616914 C14.7083633,11.4833398 14.0221953,12.7705547 14.0221953,14.215207 C14.0221953,16.6903789 16.0359258,18.7041094 18.5110977,18.7041094 C20.9862695,18.7041094 23,16.6903789 23,14.215207 C23,11.7400352 20.9862695,9.72626172 18.5110977,9.72626172 Z M5.48890234,14.8596953 L8.62351562,14.8596953 C8.32445312,16.316207 7.03259766,17.4150039 5.48890234,17.4150039 C3.72451953,17.4150039 2.2890625,15.9795469 2.2890625,14.2151641 C2.2890625,12.4507813 3.72451953,11.0153242 5.48890234,11.0153242 C7.03259766,11.0153242 8.32445312,12.1141211 8.62351562,13.5706328 L5.48890234,13.5706328 C5.13294922,13.5706328 4.84437109,13.8592109 4.84437109,14.2151641 C4.84437109,14.5711172 5.13294922,14.8596953 5.48890234,14.8596953 Z M10.7481914,13.5706328 L9.93135547,13.5706328 C9.78178125,12.5351289 9.27754297,11.6129336 8.546,10.9314492 C8.53929687,10.905582 8.53151953,10.8798008 8.52137891,10.8543203 L8.40338672,10.5573633 L12.5380547,10.5573633 L10.7481914,13.5706328 Z M18.5110977,17.4149609 C16.7466719,17.4149609 15.3112578,15.9795039 15.3112578,14.2151211 C15.3112578,13.2804219 15.7142188,12.4381484 16.3554414,11.8525703 C17.1481289,13.3674766 17.9223828,14.4967813 17.9806484,14.5812578 C18.1057305,14.762457 18.3069531,14.8596953 18.5116563,14.8596953 C18.6378984,14.8596953 18.7654727,14.8226563 18.8772344,14.7455273 C19.1701953,14.5433164 19.2437578,14.1419023 19.0415469,13.8489414 C19.027668,13.828832 18.2476992,12.6914063 17.4666562,11.1911953 C17.79425,11.0777148 18.1454336,11.0152383 18.5110977,11.0152383 C20.2754805,11.0152383 21.7109375,12.4506953 21.7109375,14.2150781 C21.7109375,15.9794609 20.2754805,17.4149609 18.5110977,17.4149609 Z" id="Shape" fill="#FFFFFF" fill-rule="nonzero"></path>
    </g>
</svg>