<?xml version="1.0" encoding="UTF-8"?>
<svg width="18px" height="19px" viewBox="0 0 18 19" version="1.1" xmlns="http://www.w3.org/2000/svg" xmlns:xlink="http://www.w3.org/1999/xlink">
    <!-- Generator: Sketch 63.1 (92452) - https://sketch.com -->
    <title>icon</title>
    <desc>Created with Sketch.</desc>
    <g id="icon" stroke="none" stroke-width="1" fill="none" fill-rule="evenodd">
        <g id="Group-6">
            <circle id="Oval" stroke="#FFFFFF" stroke-width="2" cx="6.5" cy="6.5" r="2.5"></circle>
            <path d="M0,19 C0,15.6862915 2.91014913,13 6.5,13 C10.0898509,13 13,15.6862915 13,19" id="Path" stroke="#FFFFFF" stroke-width="2" stroke-linecap="round" stroke-linejoin="round"></path>
            <path d="M17.984302,2.26705942 C17.9447964,2.14028104 17.8370372,2.05052346 17.7100516,2.03853349 L15.9780306,1.87444767 L15.2935261,0.202157558 C15.2429883,0.0792962064 15.1279963,0 15,0 C14.8720109,0 14.7569732,0.0792962064 14.7067557,0.202157558 L14.0222513,1.87444767 L12.2899556,2.03853349 C12.16297,2.0507623 12.0554397,2.14051988 12.0157052,2.26705942 C11.9761996,2.39383782 12.0126839,2.5328928 12.1087242,2.62078739 L13.417994,3.8187811 L13.031956,5.59300983 C13.0037116,5.72346643 13.0522352,5.85836551 13.1559661,5.9366108 C13.2117226,5.97888618 13.2772295,6 13.3429654,6 C13.3994543,6 13.455989,5.98433183 13.5064811,5.95280443 L15,5.02093069 L16.4932515,5.95280443 C16.602796,6.02111382 16.7405392,6.0148561 16.8440411,5.9366108 C16.9477719,5.85836551 16.9962956,5.72346643 16.9680512,5.59300983 L16.5820132,3.8187811 L17.891283,2.62078739 C17.9872775,2.5328928 18.0238077,2.39412444 17.984302,2.26705942 Z" id="Path" fill="#FFFFFF" fill-rule="nonzero"></path>
        </g>
    </g>
</svg>