<?xml version="1.0" encoding="UTF-8"?>
<svg width="19px" height="19px" viewBox="0 0 19 19" version="1.1" xmlns="http://www.w3.org/2000/svg" xmlns:xlink="http://www.w3.org/1999/xlink">
    <!-- Generator: Sketch 63.1 (92452) - https://sketch.com -->
    <title>settings</title>
    <desc>Created with Sketch.</desc>
    <g id="settings" stroke="none" stroke-width="1" fill="none" fill-rule="evenodd">
        <g id="Path-2" fill="#FFFFFF" fill-rule="nonzero">
            <path d="M16.088894,6.88878139 C16.1685946,6.99820659 16.2962382,7.06556611 16.4326446,7.0661157 L16.5661157,7.0661157 C17.9103129,7.0661157 19,8.15580282 19,9.5 C19,10.8441972 17.9103129,11.9338843 16.5661157,11.9338843 L16.498899,11.9338774 C16.3267886,11.9345639 16.1715202,12.0373906 16.1037199,12.1955854 L16.100026,12.2040783 C16.0287507,12.3655757 16.0629509,12.5541948 16.1796914,12.6736144 L16.226459,12.7203822 C16.6834866,13.1769017 16.9402848,13.79638 16.9402848,14.4423554 C16.9402848,15.0883308 16.6834866,15.7078091 16.2271384,16.1636491 C15.770619,16.6206767 15.1511407,16.8774749 14.5051653,16.8774749 C13.8591899,16.8774749 13.2397116,16.6206767 12.7835317,16.1639889 L12.7431968,16.1235797 C12.6170047,16.0001409 12.4283857,15.9659408 12.2583953,16.04091 C12.1002005,16.1087103 11.9973738,16.2639787 11.9966942,16.4326446 L11.9966942,16.5661157 C11.9966942,17.9103129 10.9070071,19 9.56280992,19 C8.21861274,19 7.12892562,17.9103129 7.12892562,16.5661157 L7.12916179,16.5156503 C7.12501544,16.3383879 7.01292988,16.1816756 6.79592167,16.100026 C6.63442427,16.0287507 6.44580525,16.0629509 6.32638561,16.1796914 L6.27961777,16.226459 C5.82309833,16.6834866 5.20362003,16.9402848 4.55764463,16.9402848 C3.91166923,16.9402848 3.29219092,16.6834866 2.83635087,16.2271384 C2.37932328,15.770619 2.12252508,15.1511407 2.12252508,14.5051653 C2.12252508,13.8591899 2.37932328,13.2397116 2.83601109,12.7835317 L2.87642033,12.7431968 C2.99985906,12.6170047 3.03405921,12.4283857 2.95908998,12.2583953 C2.89128975,12.1002005 2.73602133,11.9973738 2.56735537,11.9966942 L2.4338843,11.9966942 C1.08968712,11.9966942 0,10.9070071 0,9.56280992 C0,8.21861274 1.08968712,7.12892562 2.4338843,7.12892562 L2.48434967,7.12916179 C2.66161213,7.12501544 2.81832435,7.01292988 2.89997405,6.79592167 C2.97124929,6.63442427 2.93704914,6.44580525 2.82030861,6.32638561 L2.77354096,6.27961777 C2.31651336,5.82309833 2.05971517,5.20362003 2.05971517,4.55764463 C2.05971517,3.91166923 2.31651336,3.29219092 2.77286157,2.83635087 C3.22938101,2.37932328 3.84885931,2.12252508 4.49483471,2.12252508 C5.14081011,2.12252508 5.76028842,2.37932328 6.21646825,2.83601109 L6.25680321,2.87642033 C6.38299533,2.99985906 6.57161435,3.03405921 6.73311175,2.96278397 C6.78337964,2.94059874 6.83551171,2.92332169 6.88878139,2.91110603 C6.99820659,2.83140542 7.06556611,2.70376176 7.0661157,2.56735537 L7.0661157,2.4338843 C7.0661157,1.08968712 8.15580282,0 9.5,0 C10.8441972,0 11.9338843,1.08968712 11.9338843,2.4338843 L11.9338774,2.501101 C11.9345639,2.67321141 12.0373906,2.82847983 12.2040783,2.89997405 C12.3655757,2.97124929 12.5541948,2.93704914 12.6736144,2.82030861 L12.7203822,2.77354096 C13.1769017,2.31651336 13.79638,2.05971517 14.4423554,2.05971517 C15.0883308,2.05971517 15.7078091,2.31651336 16.1636491,2.77286157 C16.6206767,3.22938101 16.8774749,3.84885931 16.8774749,4.49483471 C16.8774749,5.14081011 16.6206767,5.76028842 16.1639889,6.21646825 L16.1235797,6.25680321 C16.0001409,6.38299533 15.9659408,6.57161435 16.037216,6.73311175 C16.0594013,6.78337964 16.0766783,6.83551171 16.088894,6.88878139 Z M16.4954545,10.2066116 L16.5661157,10.2066116 C16.9563665,10.2066116 17.2727273,9.89025079 17.2727273,9.5 C17.2727273,9.10974921 16.9563665,8.79338843 16.5661157,8.79338843 L16.4292002,8.79338156 C15.5686481,8.78994938 14.7923061,8.27581555 14.4533049,7.48484162 C14.4231196,7.4144118 14.4025126,7.34044594 14.3918892,7.26491789 C14.125832,6.49683291 14.3138301,5.63679938 14.8955152,5.04220943 L14.9429624,4.9947624 C15.0756479,4.8622245 15.1502022,4.68237596 15.1502022,4.49483471 C15.1502022,4.30729347 15.0756479,4.12744493 14.9422831,3.99422764 C14.8097452,3.86154221 14.6298966,3.78698789 14.4423554,3.78698789 C14.2548141,3.78698789 14.0749656,3.86154221 13.9420881,3.99456743 L13.8882082,4.04837306 C13.2572476,4.6655667 12.3141525,4.83656746 11.5151584,4.48388522 C10.7241844,4.14488402 10.2100506,3.36854194 10.2066116,2.50454545 L10.2066116,2.4338843 C10.2066116,2.0436335 9.89025079,1.72727273 9.5,1.72727273 C9.10974921,1.72727273 8.79338843,2.0436335 8.79338843,2.4338843 L8.79338156,2.57079982 C8.78994938,3.43135185 8.27581555,4.20769394 7.48484162,4.54669514 C7.4144118,4.57688045 7.34044594,4.59748738 7.26491789,4.60811078 C6.49683291,4.87416799 5.63679938,4.68616985 5.04220943,4.10448478 L4.9947624,4.05703756 C4.8622245,3.92435213 4.68237596,3.84979781 4.49483471,3.84979781 C4.30729347,3.84979781 4.12744493,3.92435213 3.99422764,4.05771694 C3.86154221,4.19025484 3.78698789,4.37010338 3.78698789,4.55764463 C3.78698789,4.74518587 3.86154221,4.92503441 3.99456743,5.05791191 L4.04837306,5.11179183 C4.6655667,5.74275243 4.83656746,6.68584753 4.50063655,7.44273904 C4.19461463,8.27480265 3.41105352,8.83523046 2.50454545,8.85619835 L2.4338843,8.85619835 C2.0436335,8.85619835 1.72727273,9.17255912 1.72727273,9.56280992 C1.72727273,9.95306071 2.0436335,10.2694215 2.4338843,10.2694215 L2.57079982,10.2694284 C3.43135185,10.2728605 4.20769394,10.7869944 4.54300116,11.5694754 C4.89937738,12.3769624 4.72837662,13.3200575 4.10448478,13.9577906 L4.05703756,14.0052376 C3.92435213,14.1377755 3.84979781,14.317624 3.84979781,14.5051653 C3.84979781,14.6927065 3.92435213,14.8725551 4.05771694,15.0057724 C4.19025484,15.1384578 4.37010338,15.2130121 4.55764463,15.2130121 C4.74518587,15.2130121 4.92503441,15.1384578 5.05791191,15.0054326 L5.11179183,14.9516269 C5.74275243,14.3344333 6.68584753,14.1634325 7.44273904,14.4993634 C8.27480265,14.8053854 8.83523046,15.5889465 8.85619835,16.4954545 L8.85619835,16.5661157 C8.85619835,16.9563665 9.17255912,17.2727273 9.56280992,17.2727273 C9.95306071,17.2727273 10.2694215,16.9563665 10.2694215,16.5661157 L10.2694284,16.4292002 C10.2728605,15.5686481 10.7869944,14.7923061 11.5694754,14.4569988 C12.3769624,14.1006226 13.3200575,14.2716234 13.9577906,14.8955152 L14.0052376,14.9429624 C14.1377755,15.0756479 14.317624,15.1502022 14.5051653,15.1502022 C14.6927065,15.1502022 14.8725551,15.0756479 15.0057724,14.9422831 C15.1384578,14.8097452 15.2130121,14.6298966 15.2130121,14.4423554 C15.2130121,14.2548141 15.1384578,14.0749656 15.0054326,13.9420881 L14.9516269,13.8882082 C14.3355131,13.2583514 14.1640322,12.3174513 14.5179432,11.5109047 C14.8579023,10.7223411 15.6330083,10.2100444 16.4954545,10.2066116 Z M9.5,11.8553719 C10.800836,11.8553719 11.8553719,10.800836 11.8553719,9.5 C11.8553719,8.19916402 10.800836,7.1446281 9.5,7.1446281 C8.19916402,7.1446281 7.1446281,8.19916402 7.1446281,9.5 C7.1446281,10.800836 8.19916402,11.8553719 9.5,11.8553719 Z" id="Path"></path>
        </g>
    </g>
</svg>